<svg width="15" height="15" viewBox="0 0 15 15" fill="none" xmlns="http://www.w3.org/2000/svg">
<path d="M7.2458 13.6142C7.2458 14.3795 6.68807 15 6.00008 15C5.31209 15 4.75437 14.3795 4.75437 13.6142C4.75437 12.8488 5.31209 12.2284 6.00009 12.2284C6.68808 12.2284 7.2458 12.8488 7.2458 13.6142ZM11.0441 12.2284C10.3561 12.2284 9.79835 12.8488 9.79835 13.6142C9.79835 14.3795 10.3561 15 11.0441 15C11.732 15 12.2898 14.3795 12.2898 13.6142C12.2898 12.8488 11.732 12.2284 11.0441 12.2284ZM14.9109 5.72276L13.378 10.791C13.378 10.791 13.2511 11.5432 12.6047 11.5432C11.9582 11.5432 5.63609 11.5432 4.86458 11.5432C4.09308 11.5432 4.06066 10.6004 4.06066 10.6004C4.06066 10.6004 3.23822 3.81251 3.19746 3.40243C3.1567 2.99235 2.68529 2.6884 2.68529 2.6884L0.656948 1.63436C-0.453542 0.988331 0.0512245 -0.240872 0.656948 0.0414447C3.22895 1.39119 4.42372 2.05577 4.5006 2.58742C4.5784 3.12011 4.71362 4.40289 4.71362 4.40289V4.41113C4.72937 4.40598 4.74048 4.40289 4.74048 4.40289C4.74048 4.40289 12.6278 4.40289 14.2209 4.40289C15.3656 4.40289 14.9109 5.72483 14.9109 5.72276ZM12.6936 8.54488L12.6778 8.54591H5.17393L5.3286 9.91008H12.3287L12.6936 8.54488ZM13.4243 5.79386H4.86366L5.02852 7.2518C6.67064 7.2518 11.4794 7.2518 13.0372 7.2518L13.4243 5.79386Z" fill="#090509"/>
</svg>
