<svg width="15" height="15" viewBox="0 0 15 15" fill="none" xmlns="http://www.w3.org/2000/svg">
<path d="M8.75004 4.06254C8.75004 5.78842 7.35088 7.18746 5.625 7.18746C3.89912 7.18746 2.49996 5.78842 2.49996 4.06254C2.49996 2.33665 3.89912 0.9375 5.625 0.9375C7.35088 0.9375 8.75004 2.33665 8.75004 4.06254Z" fill="black"/>
<path d="M8.28129 8.4375H2.96871C1.33186 8.4375 0 9.76936 0 11.4062V13.5938C0 13.8525 0.209999 14.0625 0.46875 14.0625H10.7812C11.04 14.0625 11.25 13.8525 11.25 13.5938V11.4062C11.25 9.76936 9.91814 8.4375 8.28129 8.4375V8.4375Z" fill="black"/>
<path d="M14.8507 6.21872L12.6631 4.18751C12.575 4.10557 12.46 4.06311 12.3444 4.06311C12.0344 4.06311 11.875 4.3269 11.875 4.53129V5.93754H9.375C9.02939 5.93754 8.75004 6.21746 8.75004 6.5625C8.75004 6.90754 9.02939 7.18746 9.375 7.18746H11.875V8.59371C11.875 8.85372 12.0862 9.06246 12.3437 9.06246C12.46 9.06246 12.5744 9.01943 12.6631 8.93749L14.8507 6.90628C14.9456 6.81747 15 6.6925 15 6.5625C15 6.4325 14.9456 6.30753 14.8507 6.21872V6.21872Z" fill="black"/>
</svg>
